<svg width="59" height="59" viewBox="0 0 59 59" fill="none" xmlns="http://www.w3.org/2000/svg">
<g filter="url(#filter0_d)">
<path d="M32.8895 38.1983H32.6662C31.486 38.099 30.3375 37.7736 29.2868 37.2408C27.0186 36.1669 25.0097 34.6373 23.3926 32.7525C22.1619 31.3668 21.1882 29.7831 20.5151 28.0722C20.1428 27.2019 19.9687 26.2633 20.0046 25.3211C20.0453 24.657 20.3439 24.0329 20.84 23.5755C21.0982 23.3383 21.3476 23.0954 21.5942 22.8524C21.7856 22.6632 21.9626 22.505 22.1424 22.3327C22.3107 22.1529 22.5156 22.0093 22.7441 21.9111C22.9727 21.8128 23.2197 21.762 23.4695 21.762C23.7193 21.762 23.9664 21.8128 24.1949 21.9111C24.4234 22.0093 24.6283 22.1529 24.7966 22.3327C25.1476 22.6688 25.4956 23.0106 25.8437 23.3552L26.157 23.6603L26.8532 24.341C27.0451 24.5056 27.1988 24.7081 27.3041 24.9351C27.4094 25.162 27.4639 25.4082 27.4639 25.6572C27.4639 25.9063 27.4094 26.1525 27.3041 26.3794C27.1988 26.6064 27.0451 26.8089 26.8532 26.9735L26.537 27.2814C26.2614 27.5497 25.9888 27.818 25.7103 28.0835C25.9751 28.6226 26.3094 29.1267 26.7052 29.5834C27.5688 30.6534 28.6088 31.5764 29.7829 32.3147C29.9192 32.3966 30.0729 32.4729 30.2412 32.552L30.3949 32.6254C30.772 32.2498 31.1549 31.8797 31.5378 31.5097C31.7059 31.3277 31.9114 31.1822 32.1411 31.0825C32.3707 30.9829 32.6193 30.9314 32.8707 30.9314C33.1221 30.9314 33.3706 30.9829 33.6003 31.0825C33.8299 31.1822 34.0354 31.3277 34.2035 31.5097C34.8978 32.1782 35.5881 32.8504 36.2746 33.5265C36.4629 33.6917 36.6135 33.8937 36.7165 34.1192C36.8196 34.3447 36.8728 34.5888 36.8728 34.8356C36.8728 35.0825 36.8196 35.3266 36.7165 35.5521C36.6135 35.7776 36.4629 35.9796 36.2746 36.1448C36.1412 36.2748 36.0049 36.4047 35.8685 36.5346C35.6046 36.786 35.3522 37.0233 35.1231 37.2775C34.8429 37.5811 34.4976 37.821 34.1116 37.9801C33.7256 38.1392 33.3084 38.2137 32.8895 38.1983ZM21.6029 27.6796C22.2299 29.2688 23.1358 30.7397 24.2802 32.0266C25.7927 33.788 27.671 35.2175 29.7916 36.2211C30.7014 36.6959 31.7014 36.9843 32.73 37.0685C33.0118 37.101 33.2975 37.0666 33.5627 36.9682C33.8279 36.8699 34.0647 36.7104 34.2528 36.5035C34.511 36.2211 34.7866 35.9584 35.0563 35.7042C35.1869 35.5799 35.3174 35.4556 35.4479 35.3285C35.5302 35.2688 35.5969 35.1913 35.6429 35.102C35.6889 35.0128 35.7129 34.9143 35.7129 34.8145C35.7129 34.7146 35.6889 34.6161 35.6429 34.5269C35.5969 34.4376 35.5302 34.3601 35.4479 34.3004C34.7634 33.6263 34.0749 32.9559 33.3826 32.2893C33.3225 32.2131 33.2452 32.1514 33.1567 32.109C33.0681 32.0665 32.9708 32.0444 32.8721 32.0444C32.7734 32.0444 32.6761 32.0665 32.5876 32.109C32.499 32.1514 32.4217 32.2131 32.3616 32.2893C31.9265 32.7102 31.4914 33.1197 31.0882 33.5378C30.9612 33.6803 30.7871 33.7752 30.5959 33.8061C30.4048 33.837 30.2085 33.8021 30.041 33.7072C29.9366 33.6507 29.8293 33.5999 29.7249 33.5519C29.5421 33.4643 29.3536 33.3739 29.1679 33.2694C27.8854 32.4645 26.7492 31.4574 25.806 30.2895C25.2979 29.7052 24.8806 29.0514 24.5674 28.349C24.4895 28.1913 24.4664 28.0132 24.5014 27.8415C24.5365 27.6698 24.6278 27.5139 24.7618 27.3972C25.0837 27.0949 25.3999 26.7871 25.7132 26.4764L26.0294 26.1657C26.392 25.8098 26.392 25.4878 26.0294 25.1234L25.339 24.4483L25.0228 24.1404C24.6776 23.7987 24.3325 23.4597 23.9844 23.1293C23.9236 23.053 23.8458 22.9913 23.7568 22.9488C23.6678 22.9064 23.57 22.8843 23.471 22.8843C23.3719 22.8843 23.2741 22.9064 23.1851 22.9488C23.0961 22.9913 23.0183 23.053 22.9575 23.1293C22.7777 23.2987 22.6065 23.4682 22.4325 23.6377C22.1772 23.8891 21.9191 24.1404 21.6551 24.3834C21.3595 24.6478 21.1832 25.0154 21.1649 25.4058C21.1426 26.1801 21.2889 26.9502 21.5942 27.6655L21.6029 27.6796ZM38.5691 29.106H37.4088C37.4057 27.0236 36.5548 25.0274 35.0427 23.5549C33.5305 22.0825 31.4805 21.2539 29.342 21.2509V20.1211C31.7882 20.1241 34.1334 21.0717 35.8631 22.756C37.5929 24.4404 38.566 26.724 38.5691 29.106ZM35.4798 29.106H34.3196C34.318 27.821 33.7931 26.589 32.86 25.6804C31.9268 24.7717 30.6616 24.2606 29.342 24.2591V23.1293C30.9691 23.1315 32.529 23.7619 33.6796 24.8823C34.8301 26.0027 35.4775 27.5216 35.4798 29.106Z" fill="#DDA046"/>
</g>
<defs>
<filter id="filter0_d" x="0" y="0.121094" width="58.5691" height="58.0792" filterUnits="userSpaceOnUse" color-interpolation-filters="sRGB">
<feFlood flood-opacity="0" result="BackgroundImageFix"/>
<feColorMatrix in="SourceAlpha" type="matrix" values="0 0 0 0 0 0 0 0 0 0 0 0 0 0 0 0 0 0 127 0"/>
<feOffset/>
<feGaussianBlur stdDeviation="10"/>
<feColorMatrix type="matrix" values="0 0 0 0 0.752941 0 0 0 0 0.545098 0 0 0 0 0.380392 0 0 0 1 0"/>
<feBlend mode="lighten" in2="BackgroundImageFix" result="effect1_dropShadow"/>
<feBlend mode="normal" in="SourceGraphic" in2="effect1_dropShadow" result="shape"/>
</filter>
</defs>
</svg>
