<svg width="144" height="144" viewBox="0 0 144 144" fill="none" xmlns="http://www.w3.org/2000/svg">
<g filter="url(#filter0_d)">
<path d="M75.8828 81.4936H75.6422C74.3711 81.3867 73.1341 81.0362 72.0025 80.4623C69.5594 79.3058 67.3957 77.6582 65.6541 75.6282C64.3285 74.1357 63.2798 72.43 62.5548 70.5873C62.1538 69.6499 61.9663 68.639 62.005 67.6242C62.0487 66.9089 62.3704 66.2367 62.9048 65.7441C63.1828 65.4885 63.4515 65.2269 63.7171 64.9653C63.9233 64.7614 64.1138 64.5911 64.3075 64.4055C64.4888 64.2119 64.7095 64.0572 64.9556 63.9513C65.2017 63.8455 65.4678 63.7908 65.7369 63.7908C66.0059 63.7908 66.272 63.8455 66.5181 63.9513C66.7642 64.0572 66.985 64.2119 67.1662 64.4055C67.5442 64.7675 67.9191 65.1356 68.294 65.5068L68.6315 65.8353L69.3813 66.5685C69.588 66.7458 69.7535 66.9639 69.8669 67.2084C69.9804 67.4528 70.039 67.718 70.039 67.9862C70.039 68.2544 69.9804 68.5196 69.8669 68.764C69.7535 69.0084 69.588 69.2266 69.3813 69.4039L69.0407 69.7355C68.7439 70.0245 68.4502 70.3135 68.1503 70.5995C68.4355 71.1801 68.7956 71.723 69.2219 72.2149C70.152 73.3674 71.2722 74.3615 72.5367 75.1567C72.6836 75.2449 72.8492 75.3271 73.0304 75.4122L73.1959 75.4913C73.6021 75.0867 74.0145 74.6882 74.4269 74.2897C74.6079 74.0936 74.8293 73.9369 75.0766 73.8296C75.324 73.7223 75.5917 73.6668 75.8625 73.6668C76.1332 73.6668 76.401 73.7223 76.6483 73.8296C76.8956 73.9369 77.117 74.0936 77.298 74.2897C78.0458 75.0097 78.7893 75.7337 79.5287 76.4618C79.7315 76.6398 79.8937 76.8573 80.0047 77.1002C80.1157 77.3431 80.173 77.606 80.173 77.8719C80.173 78.1377 80.1157 78.4006 80.0047 78.6435C79.8937 78.8864 79.7315 79.1039 79.5287 79.2819C79.385 79.4219 79.2382 79.5618 79.0914 79.7018C78.807 79.9725 78.5352 80.2281 78.2884 80.5019C77.9867 80.8289 77.6148 81.0873 77.199 81.2587C76.7833 81.4301 76.3339 81.5103 75.8828 81.4936ZM63.7264 70.1644C64.4017 71.876 65.3775 73.4603 66.6101 74.8464C68.239 76.7435 70.2621 78.2831 72.5461 79.3641C73.526 79.8755 74.6031 80.1861 75.7109 80.2768C76.0145 80.3118 76.3222 80.2748 76.6078 80.1688C76.8935 80.0628 77.1485 79.8911 77.3512 79.6683C77.6292 79.3641 77.926 79.0812 78.2166 78.8074C78.3572 78.6735 78.4977 78.5396 78.6383 78.4027C78.7269 78.3385 78.7988 78.2549 78.8484 78.1588C78.8979 78.0627 78.9237 77.9566 78.9237 77.8491C78.9237 77.7415 78.8979 77.6354 78.8484 77.5393C78.7988 77.4432 78.7269 77.3597 78.6383 77.2954C77.901 76.5693 77.1595 75.8473 76.4139 75.1293C76.3491 75.0473 76.2658 74.9808 76.1705 74.9351C76.0752 74.8894 75.9703 74.8656 75.864 74.8656C75.7578 74.8656 75.6529 74.8894 75.5576 74.9351C75.4622 74.9808 75.3789 75.0473 75.3142 75.1293C74.8455 75.5826 74.3769 76.0237 73.9426 76.474C73.8058 76.6275 73.6183 76.7297 73.4125 76.763C73.2066 76.7963 72.9952 76.7587 72.8148 76.6565C72.7023 76.5957 72.5867 76.5409 72.4742 76.4892C72.2774 76.3949 72.0743 76.2975 71.8744 76.185C70.493 75.318 69.2693 74.2334 68.2534 72.9754C67.7061 72.346 67.2567 71.6419 66.9194 70.8854C66.8355 70.7155 66.8106 70.5237 66.8483 70.3388C66.8861 70.1539 66.9845 69.9859 67.1287 69.8602C67.4755 69.5347 67.816 69.2031 68.1534 68.8684L68.494 68.5338C68.8845 68.1505 68.8845 67.8037 68.494 67.4112L67.7504 66.6841L67.4099 66.3525C67.0381 65.9844 66.6663 65.6193 66.2914 65.2634C66.226 65.1813 66.1422 65.1148 66.0463 65.0691C65.9505 65.0234 65.8452 64.9996 65.7384 64.9996C65.6317 64.9996 65.5264 65.0234 65.4305 65.0691C65.3347 65.1148 65.2508 65.1813 65.1854 65.2634C64.9917 65.4459 64.8074 65.6285 64.62 65.811C64.345 66.0818 64.067 66.3525 63.7827 66.6141C63.4642 66.8989 63.2744 67.2948 63.2547 67.7154C63.2306 68.5494 63.3882 69.3788 63.7171 70.1492L63.7264 70.1644ZM82 71.7007H80.7503C80.747 69.4579 79.8306 67.3078 78.2019 65.7219C76.5732 64.1359 74.3652 63.2435 72.0618 63.2403V62.0234C74.6966 62.0267 77.2225 63.0473 79.0855 64.8614C80.9486 66.6756 81.9967 69.1351 82 71.7007ZM78.6727 71.7007H77.423C77.4214 70.3167 76.856 68.9898 75.8509 68.0111C74.8459 67.0324 73.4832 66.4819 72.0618 66.4803V65.2634C73.8144 65.2658 75.4945 65.9448 76.7337 67.1515C77.9729 68.3582 78.6702 69.9942 78.6727 71.7007Z" fill="#DDA046"/>
</g>
<defs>
<filter id="filter0_d" x="0" y="0.0234375" width="144" height="143.472" filterUnits="userSpaceOnUse" color-interpolation-filters="sRGB">
<feFlood flood-opacity="0" result="BackgroundImageFix"/>
<feColorMatrix in="SourceAlpha" type="matrix" values="0 0 0 0 0 0 0 0 0 0 0 0 0 0 0 0 0 0 127 0"/>
<feOffset/>
<feGaussianBlur stdDeviation="31"/>
<feColorMatrix type="matrix" values="0 0 0 0 0.866667 0 0 0 0 0.627451 0 0 0 0 0.27451 0 0 0 1 0"/>
<feBlend mode="lighten" in2="BackgroundImageFix" result="effect1_dropShadow"/>
<feBlend mode="normal" in="SourceGraphic" in2="effect1_dropShadow" result="shape"/>
</filter>
</defs>
</svg>
